<?xml version="1.0" encoding="UTF-8"?>
<svg version="1.1" xmlns="http://www.w3.org/2000/svg" width="1365" height="1365">
<path d="M0 0 C25.76024794 11.33450909 49.85579098 35.59531333 65 59 C65.93199219 60.40378906 65.93199219 60.40378906 66.8828125 61.8359375 C83.10239451 87.08760047 93.97444115 117.60004644 94.23828125 147.78125 C94.2480751 148.70421875 94.25786896 149.6271875 94.26795959 150.578125 C94.59187188 188.99448438 94.59187188 188.99448438 90 207 C89.77505859 207.89960449 89.55011719 208.79920898 89.31835938 209.72607422 C87.74255754 215.88277104 85.94881537 221.9517826 84 228 C83.76023437 228.74830078 83.52046875 229.49660156 83.2734375 230.26757812 C69.26285338 273.33857712 43.96799951 310.39426346 13.40625 343.37109375 C11.42024837 345.54086501 9.50599745 347.73992398 7.625 350 C5.23131695 352.73563777 2.86806519 354.79379601 0 357 C-2.35666033 359.29119754 -4.64989138 361.63642567 -6.9296875 364.00390625 C-11.80407309 368.99104453 -16.89231932 373.47563709 -22.3359375 377.83203125 C-24.67764416 379.7376723 -26.90509323 381.70580013 -29.125 383.75 C-35.36427304 389.35533621 -42.12405024 394.31032075 -48.81982422 399.35058594 C-50.84005483 400.87899333 -52.84595611 402.42401168 -54.84765625 403.9765625 C-76.5026687 420.66668498 -100.20650219 434.60630918 -124 448 C-117.33849416 445.11376318 -110.68104355 442.2183544 -104.02636719 439.31640625 C-101.39794758 438.17309885 -98.76615413 437.03815412 -96.1328125 435.90625 C-86.06261433 431.54744143 -76.35791433 426.6681239 -66.70507812 421.45410156 C-63.75417751 419.86785932 -60.79182213 418.30438275 -57.828125 416.7421875 C-43.21870095 409.00733585 -28.99545277 400.79625991 -15 392 C-13.95682617 391.34475342 -13.95682617 391.34475342 -12.89257812 390.67626953 C-8.90105031 388.15858374 -4.94347766 385.59251547 -1 383 C-0.12867432 382.42934814 -0.12867432 382.42934814 0.76025391 381.84716797 C25.44571269 365.65705335 48.95447724 348.04769847 71.40991211 328.88696289 C74.80991898 325.98837869 78.26418164 323.16945633 81.75 320.375 C85.98786525 316.93058122 89.86421539 313.28232378 93.63671875 309.3359375 C95.5984076 307.39694587 97.59094031 305.605223 99.6796875 303.80859375 C104.47913208 299.64546245 108.95763709 295.18937697 113.4375 290.6875 C114.25154297 289.87732422 115.06558594 289.06714844 115.90429688 288.23242188 C116.67708984 287.45833984 117.44988281 286.68425781 118.24609375 285.88671875 C118.94404053 285.18764404 119.6419873 284.48856934 120.36108398 283.76831055 C122.07362678 282.08607832 122.07362678 282.08607832 123 280 C123.66 280 124.32 280 125 280 C125.23589844 279.43410156 125.47179687 278.86820312 125.71484375 278.28515625 C127.29414316 275.47697948 129.22686006 273.65617519 131.5625 271.4375 C135.92465906 267.16948825 139.82235307 262.72109029 143.6015625 257.93359375 C145.61709941 255.46833606 147.69017975 253.11116853 149.82421875 250.75 C153.8833886 246.20748337 157.5675393 241.45857249 161.1875 236.5625 C161.82896973 235.70068115 162.47043945 234.8388623 163.13134766 233.95092773 C169.50709559 225.36275285 175.79507243 216.71229511 182 208 C182.40911621 207.42765625 182.81823242 206.8553125 183.23974609 206.265625 C214.99657618 161.70602008 241.04580607 109.3310865 250 55 C250.30357422 53.23849609 250.30357422 53.23849609 250.61328125 51.44140625 C251.09109475 48.62978261 251.55413267 45.8168324 252 43 C252.66 43 253.32 43 254 43 C276.08488548 105.94192361 268.3904561 171.68250131 239.90234375 231.45703125 C238.3226073 234.69547152 236.67966245 237.89728917 235.00195312 241.0859375 C233.94725531 243.10075984 232.91817014 245.12745887 231.890625 247.15625 C221.04027171 268.3736933 207.11522204 287.9449698 192.20800781 306.4921875 C191.12687129 307.84164165 190.05864625 309.20141646 188.9921875 310.5625 C181.12741301 320.5662299 172.88285595 330.4050433 163.73828125 339.265625 C161.99589164 341.00409913 160.40532831 342.81176057 158.8125 344.6875 C151.87306843 352.7410605 144.18156506 360.32541537 136.078125 367.203125 C133.91922215 369.06984551 131.82464178 370.99875642 129.73339844 372.94067383 C123.68456214 378.55294693 117.44440064 383.84277462 111 389 C109.86916043 389.92240375 108.73898485 390.84562196 107.609375 391.76953125 C65.57596773 426.00274884 18.04970741 454.23629266 -32 475 C-32.91813477 475.38317383 -33.83626953 475.76634766 -34.78222656 476.16113281 C-51.58608332 483.11507569 -68.8239391 488.76689599 -86.10803223 494.38409424 C-88.86277215 495.28086437 -91.61466317 496.18629964 -94.3671875 497.08984375 C-115.64558129 504.02677526 -137.12955689 510.43174144 -158.6875 516.44433594 C-195.87317654 526.82831693 -229.34618541 540.59067097 -257.54394531 567.61132812 C-258.81482397 568.82339348 -260.10507294 570.01508329 -261.3984375 571.203125 C-289.13338096 597.43617622 -304.18511007 635.85916544 -305.65917969 673.46655273 C-305.81856321 677.41375955 -306.05899845 681.14267133 -307 685 C-314.79085517 682.14968713 -319.19344696 670.00452737 -322.625 662.8125 C-325.20510766 657.22568734 -327.34325386 651.51546995 -329.3125 645.6875 C-329.55500488 644.97118408 -329.79750977 644.25486816 -330.04736328 643.5168457 C-333.13852271 633.98668103 -334.3150564 624.92310145 -334.3359375 614.9140625 C-334.3425943 613.77705902 -334.3492511 612.64005554 -334.35610962 611.46859741 C-334.3661874 609.07006432 -334.37092816 606.67150346 -334.37060547 604.27294922 C-334.37494609 600.66975467 -334.41123037 597.06781962 -334.44921875 593.46484375 C-334.53490532 576.1559327 -333.41371027 559.14419083 -326.4375 543.0625 C-325.93259033 541.854729 -325.93259033 541.854729 -325.41748047 540.62255859 C-318.90008224 525.41529607 -311.18976107 511.05092551 -301 498 C-300.30777344 497.09765625 -299.61554687 496.1953125 -298.90234375 495.265625 C-277.10192528 467.71967568 -249.76319272 449.17438293 -220.625 430.25 C-219.77832764 429.69989258 -218.93165527 429.14978516 -218.05932617 428.58300781 C-216.829198 427.7839502 -216.829198 427.7839502 -215.57421875 426.96875 C-214.78837402 426.45828125 -214.0025293 425.9478125 -213.19287109 425.421875 C-211.8403255 424.54487371 -210.48670851 423.66951915 -209.13134766 422.796875 C-187.93989448 409.15128485 -168.44269197 392.50221534 -162.39697266 367.06860352 C-159.55991957 352.28486992 -163.00638877 337.63394362 -171.0625 325.125 C-182.81911148 309.41052429 -199.08526558 302.3816402 -218 299 C-247.16805297 295.03228691 -282.17191781 301.67585646 -307 318 C-308.07701172 319.07894531 -308.07701172 319.07894531 -309.17578125 320.1796875 C-311 322 -311 322 -313 322 C-313.2475 322.515625 -313.495 323.03125 -313.75 323.5625 C-314.79220269 325.59479524 -315.90090992 327.53585678 -317.0625 329.5 C-321.50925604 337.31901713 -320.22578813 344.65329452 -318 353 C-318 354.32 -318 355.64 -318 357 C-326.19816401 356.08085684 -333.50262033 348.38905609 -338.52734375 342.1484375 C-349.04839799 326.79941938 -353.36211231 311.582168 -350.375 292.875 C-345.79427638 273.57277838 -329.74414667 258.80019033 -314 248 C-310.15715774 250.22517521 -306.59583473 252.71001461 -303 255.3125 C-290.06144418 264.42559826 -276.9327455 269.46004541 -261 268 C-245.58892944 264.92128443 -235.42135824 255.3636502 -226.1875 243 C-215.8019791 229.74807533 -199.50497257 221.67483626 -184 216 C-192.4548522 215.70249347 -200.22886004 216.45084133 -208.5 218.1875 C-209.59860352 218.41453613 -210.69720703 218.64157227 -211.82910156 218.87548828 C-219.36406771 220.49845583 -226.15709359 222.38274074 -233 226 C-234.0003125 226.52464844 -235.000625 227.04929687 -236.03125 227.58984375 C-238.18673127 228.74344477 -240.33518388 229.91027078 -242.4765625 231.08984375 C-246.47750619 233.28149483 -250.54563998 235.33393747 -254.625 237.375 C-255.31239258 237.72087158 -255.99978516 238.06674316 -256.70800781 238.4230957 C-264.27112172 242.19426895 -270.57349282 242.93135079 -279 242 C-286.08361153 239.4086535 -292.17064184 234.71025502 -298 230 C-286.56264888 215.7805905 -271.67449185 205.10423718 -256 196 C-254.88367188 195.34128906 -253.76734375 194.68257812 -252.6171875 194.00390625 C-238.2581041 185.78183381 -222.57113884 180.64749196 -206.5625 176.6875 C-205.64871582 176.45724121 -204.73493164 176.22698242 -203.79345703 175.98974609 C-188.23234482 172.3585535 -172.13114815 171.04802176 -156.25390625 169.5703125 C-154.97602737 169.45132095 -153.6981485 169.33232941 -152.38154602 169.20973206 C-147.12478248 168.72353311 -141.86787033 168.24027695 -136.60913086 167.77587891 C-105.68256598 165.02727686 -76.52377665 159.89847285 -49 145 C-48.030625 144.50886719 -47.06125 144.01773438 -46.0625 143.51171875 C-35.14110799 137.87640747 -25.37116336 130.54522034 -16.3984375 122.18359375 C-12.43755437 118.57751286 -8.22012928 115.29529243 -4 112 C-3.34 112.33 -2.68 112.66 -2 113 C-18.51354766 149.08695855 -46.6764189 174.7076654 -83.75390625 188.8359375 C-102.22951122 195.58004584 -121.52509815 197.9890047 -141 200 C-95.791201 205.96223598 -50.25769627 204.93142274 -8.73828125 184.28515625 C-6 183 -6 183 -4 183 C-12.85055594 202.86859496 -40.10792818 218.06558983 -59.29296875 225.7578125 C-74.61352149 230.8915699 -89.45424243 233.01872373 -105.5625 233.5625 C-107.36170898 233.62727539 -107.36170898 233.62727539 -109.19726562 233.69335938 C-112.13141793 233.79856802 -115.0656425 233.90070883 -118 234 C-99.50698405 239.34203966 -81.01044471 244.67170448 -62.51062012 249.9901123 C-59.38852923 250.88823317 -56.26689557 251.78791577 -53.14550781 252.68847656 C-49.29707699 253.79842657 -45.44704159 254.90253641 -41.5949707 255.99978638 C-39.67077861 256.54942354 -37.74844857 257.10556627 -35.82617188 257.66186523 C-34.70017578 257.98098877 -33.57417969 258.3001123 -32.4140625 258.62890625 C-31.4751416 258.89775635 -30.5362207 259.16660645 -29.56884766 259.44360352 C-26.92769486 260.01566084 -24.69253924 260.21522094 -22 260 C-14.37865771 254.88966287 -8.50894127 247.22789662 -3 240 C-2.41734375 239.24460937 -1.8346875 238.48921875 -1.234375 237.7109375 C29.74634837 195.58294451 39.12046031 139.97982407 32.44970703 88.93212891 C29.87348788 72.13495625 25.24126234 55.78631196 19 40 C18.596604 38.977854 18.596604 38.977854 18.18505859 37.93505859 C13.61132023 26.55805926 7.82641246 15.79609727 2.01220703 5.0144043 C1 3 1 3 0 0 Z " fill="#FF5000" transform="translate(824,219)"/>
<path d="M0 0 C0.83304657 -0.00140991 1.66609314 -0.00281982 2.52438354 -0.00427246 C5.22333085 -0.00639759 7.9221584 -0.00012265 10.62109375 0.0078125 C12.01112106 0.01013885 12.01112106 0.01013885 13.42922974 0.01251221 C97.14560441 0.17631783 97.14560441 0.17631783 117.05859375 10.1328125 C116.5755681 14.54277397 115.837946 16.9121647 112.87109375 20.1953125 C108.51318668 25.36983639 104.78584914 30.86511378 101.05859375 36.5078125 C100.45362061 37.42336914 99.84864746 38.33892578 99.2253418 39.28222656 C98.04307307 41.07543838 96.86212343 42.8695207 95.68261719 44.66455078 C93.53096063 47.93473235 91.3585653 51.19059529 89.18359375 54.4453125 C88.56742188 55.36957031 87.95125 56.29382813 87.31640625 57.24609375 C86.90132812 57.86871094 86.48625 58.49132812 86.05859375 59.1328125 C80.70579619 58.56936013 75.38694225 57.89481752 70.05859375 57.1328125 C54.23972759 55.03343635 38.36639266 54.92488438 22.43359375 54.9453125 C21.41369354 54.94658142 20.39379333 54.94785034 19.34298706 54.94915771 C-58.66054766 55.13422674 -136.55163519 81.89656048 -195.63085938 133.55541992 C-198.26597716 135.83681091 -200.71686741 137.77185606 -203.94140625 139.1328125 C-203.94140625 139.7928125 -203.94140625 140.4528125 -203.94140625 141.1328125 C-205.33984375 142.5078125 -205.33984375 142.5078125 -207.31640625 144.1328125 C-215.18500188 150.83156382 -222.26116057 158.26312349 -228.94140625 166.1328125 C-229.73933594 167.04160156 -230.53726563 167.95039063 -231.359375 168.88671875 C-239.18041684 177.85774447 -246.12435809 187.38507074 -252.94140625 197.1328125 C-253.60438721 198.07181396 -253.60438721 198.07181396 -254.28076172 199.02978516 C-283.15181355 240.09860274 -301.29124517 287.6689541 -308.94140625 337.1328125 C-309.10656738 338.17018555 -309.27172852 339.20755859 -309.44189453 340.27636719 C-314.41968504 372.9434391 -314.21238441 408.52474179 -308.94140625 441.1328125 C-308.7697998 442.20998535 -308.59819336 443.2871582 -308.42138672 444.39697266 C-305.74776805 460.63221737 -301.72053613 476.39908577 -296.94140625 492.1328125 C-296.70341309 492.93058105 -296.46541992 493.72834961 -296.22021484 494.55029297 C-286.00098161 528.46866171 -269.29806775 560.90525786 -247.94140625 589.1328125 C-247.27109375 590.05707031 -246.60078125 590.98132813 -245.91015625 591.93359375 C-241.60722073 597.8189494 -237.08148168 603.4303751 -232.31640625 608.9453125 C-231.79022705 609.55536133 -231.26404785 610.16541016 -230.72192383 610.79394531 C-227.3934759 614.60232343 -223.91893362 618.17779981 -220.24853516 621.65893555 C-218.94140625 623.1328125 -218.94140625 623.1328125 -218.94140625 625.1328125 C-218.05304077 625.53004517 -218.05304077 625.53004517 -217.14672852 625.93530273 C-214.86847262 627.17241612 -213.4432809 628.42878827 -211.65625 630.29296875 C-210.74588989 631.22894897 -210.74588989 631.22894897 -209.81713867 632.18383789 C-208.85771362 633.17951782 -208.85771362 633.17951782 -207.87890625 634.1953125 C-201.86965625 640.30554617 -195.71910531 645.87575105 -188.94140625 651.1328125 C-187.59126219 652.22118697 -186.2424072 653.31116163 -184.89453125 654.40234375 C-175.94833464 661.58074672 -166.81012872 667.9991784 -156.9296875 673.828125 C-155.92723999 674.42560547 -155.92723999 674.42560547 -154.90454102 675.03515625 C-152.97428432 676.15841035 -152.97428432 676.15841035 -150.97631836 676.98046875 C-148.23641023 678.22708925 -146.29447956 679.42666589 -144.93041992 682.15478516 C-144.105335 684.71252238 -143.47067131 687.26137257 -142.87890625 689.8828125 C-142.39036599 691.78903572 -141.89682195 693.6939831 -141.3984375 695.59765625 C-141.15689941 696.53851074 -140.91536133 697.47936523 -140.66650391 698.44873047 C-135.48495542 717.629183 -125.48119636 736.20626605 -114.0078125 752.29296875 C-112.94140625 754.1328125 -112.94140625 754.1328125 -112.94140625 757.1328125 C-119.65190514 755.3029158 -125.82666937 753.00768707 -132.06640625 749.9453125 C-132.8877002 749.54876465 -133.70899414 749.1522168 -134.55517578 748.74365234 C-137.02163913 747.54878788 -139.48224668 746.34262575 -141.94140625 745.1328125 C-142.97491211 744.62741943 -142.97491211 744.62741943 -144.02929688 744.11181641 C-148.68936027 741.82940749 -153.31984123 739.49205854 -157.94140625 737.1328125 C-158.75899414 736.71773437 -159.57658203 736.30265625 -160.41894531 735.875 C-177.98077353 726.93395758 -194.252901 717.05915549 -209.94140625 705.1328125 C-210.78316406 704.49472656 -211.62492188 703.85664062 -212.4921875 703.19921875 C-221.27939068 696.44103229 -229.79304125 689.39594568 -237.9453125 681.8828125 C-239.825913 680.08499271 -239.825913 680.08499271 -241.94140625 679.1328125 C-241.94140625 678.4728125 -241.94140625 677.8128125 -241.94140625 677.1328125 C-242.51721436 676.88225098 -243.09302246 676.63168945 -243.6862793 676.37353516 C-246.24779218 674.96424551 -247.96325575 673.35372487 -250.0234375 671.28125 C-250.79107422 670.51167969 -251.55871094 669.74210938 -252.34960938 668.94921875 C-253.14302734 668.14355469 -253.93644531 667.33789062 -254.75390625 666.5078125 C-255.53572266 665.72535156 -256.31753906 664.94289063 -257.12304688 664.13671875 C-261.92902017 659.29461031 -266.51051068 654.31874546 -270.94140625 649.1328125 C-271.83046833 648.11175199 -272.71977266 647.09090234 -273.609375 646.0703125 C-289.54345866 627.49290024 -303.77956952 607.3738171 -315.94140625 586.1328125 C-316.50625732 585.15538086 -316.50625732 585.15538086 -317.08251953 584.15820312 C-320.12978364 578.86631947 -323.06408653 573.51884885 -325.94140625 568.1328125 C-326.43656738 567.20662109 -326.93172852 566.28042969 -327.44189453 565.32617188 C-344.17801564 533.70132188 -356.30835445 500.58111086 -363.25390625 465.4453125 C-363.59989868 463.70386963 -363.59989868 463.70386963 -363.95288086 461.92724609 C-368.02040795 440.15304555 -369.42768706 418.69900778 -369.25390625 396.5703125 C-369.2455072 394.66949921 -369.2455072 394.66949921 -369.23693848 392.73028564 C-368.81423816 297.53427736 -339.46182689 205.51897329 -275.94140625 133.1328125 C-275.33167969 132.42382812 -274.72195313 131.71484375 -274.09375 130.984375 C-262.55866538 117.62222024 -250.47611467 104.49897647 -236.94140625 93.1328125 C-236.02488281 92.33875 -235.10835937 91.5446875 -234.1640625 90.7265625 C-215.19617734 74.34561685 -194.87282416 60.05985209 -172.80761719 48.14599609 C-170.98058919 47.15408529 -169.1674106 46.14024899 -167.35546875 45.12109375 C-121.62653783 19.68289588 -69.43526572 7.66940961 -17.94140625 1.1328125 C-16.88487099 0.99611649 -16.88487099 0.99611649 -15.80699158 0.85665894 C-10.51798429 0.21287683 -5.32522565 -0.0136389 0 0 Z " fill="#FF5000" transform="translate(665.94140625,255.8671875)"/>
<path d="M0 0 C0.66 0.33 1.32 0.66 2 1 C16.41387061 53.89365312 -4.15521059 125.42568937 -29.02294922 172.15185547 C-30.04866356 174.09204977 -31.04336882 176.04617142 -32.03515625 178.00390625 C-40.52967973 194.61785006 -50.36107646 210.48834035 -61.70458984 225.30761719 C-62.98603395 226.98175411 -64.25378061 228.66554117 -65.51953125 230.3515625 C-72.90876106 240.13910199 -80.55496175 249.87381703 -89.39453125 258.3984375 C-91.17219211 260.17177315 -92.80141544 262.03302405 -94.4375 263.9375 C-99.79961381 270.13744409 -105.6075148 275.76606124 -111.82421875 281.1015625 C-114.30652198 283.26745005 -116.71055145 285.50876957 -119.125 287.75 C-124.89476091 293.00389508 -130.93773333 297.82992589 -137.13330078 302.5703125 C-138.37946659 303.52473926 -139.62263464 304.48309267 -140.86279297 305.4453125 C-162.32056053 322.09079877 -185.58967617 336.33165422 -210.07714844 348.07324219 C-212.00991557 349.00477901 -213.93080616 349.95804308 -215.8515625 350.9140625 C-247.3437538 366.38914101 -281.35740348 376.05489934 -315.6875 382.8125 C-316.72559814 383.01955566 -317.76369629 383.22661133 -318.83325195 383.43994141 C-333.56103616 386.23547668 -348.21397983 386.18635855 -363.15380859 386.18530273 C-366.59615592 386.18748174 -370.03817814 386.20566866 -373.48046875 386.22460938 C-390.66769468 386.27010095 -407.45897025 385.62451681 -424.1875 381.375 C-425.22938477 381.11557617 -426.27126953 380.85615234 -427.34472656 380.58886719 C-454.17598188 373.71754661 -477.98335575 363.3444295 -501 348 C-500.67 347.01 -500.34 346.02 -500 345 C-498.05859375 344.09960938 -498.05859375 344.09960938 -495.4375 343.34375 C-493.93255981 342.90192383 -493.93255981 342.90192383 -492.3972168 342.45117188 C-491.27613525 342.13728516 -490.15505371 341.82339844 -489 341.5 C-487.82026611 341.16033203 -486.64053223 340.82066406 -485.42504883 340.47070312 C-465.20498278 334.70565285 -444.87314479 329.26368015 -424.49609375 324.08203125 C-368.99166703 309.86619346 -314.63326378 290.86193364 -263 266 C-262.02385742 265.53384277 -261.04771484 265.06768555 -260.04199219 264.58740234 C-246.16254069 257.93493672 -232.8558283 250.47103987 -219.64550781 242.57910156 C-217.3291828 241.19648896 -215.00660812 239.82560605 -212.6796875 238.4609375 C-203.90051963 233.29140462 -195.40628592 227.7535145 -187 222 C-186.22462891 221.47245117 -185.44925781 220.94490234 -184.65039062 220.40136719 C-173.59977496 212.86448156 -162.97094838 205.01214474 -152.71191406 196.42822266 C-150.26478916 194.3866253 -147.78741926 192.3827515 -145.3125 190.375 C-132.16158443 179.58299305 -118.92531317 168.66052155 -107.3125 156.1875 C-106 155 -106 155 -104 155 C-103.773125 154.443125 -103.54625 153.88625 -103.3125 153.3125 C-101.62563526 150.34040499 -99.44891639 148.39117495 -97 146 C-95.97040975 144.98402911 -94.9418002 143.96706361 -93.9140625 142.94921875 C-93.37966553 142.42013916 -92.84526855 141.89105957 -92.29467773 141.34594727 C-86.97604586 136.0630892 -81.83915101 130.72922742 -77 125 C-75.69869141 123.515 -75.69869141 123.515 -74.37109375 122 C-66.48487059 112.98060824 -59.16149161 103.6013554 -52 94 C-51.46761719 93.29391602 -50.93523437 92.58783203 -50.38671875 91.86035156 C-41.60376784 80.18714735 -33.89077995 68.00638383 -26.45214844 55.43896484 C-25.29439705 53.49445638 -24.10885981 51.5664992 -22.9140625 49.64453125 C-14.2294435 35.51673555 -8.08550504 19.74656356 -2.27734375 4.26171875 C-1 1 -1 1 0 0 Z " fill="#FF5000" transform="translate(1118,451)"/>
<path d="M0 0 C0.53254395 0.24121582 1.06508789 0.48243164 1.61376953 0.73095703 C6.88683356 3.11728233 12.1656249 5.49048203 17.44873047 7.85449219 C19.58565996 8.81396331 21.71739435 9.78368135 23.84765625 10.7578125 C37.1650734 16.70781642 50.70103344 20.19364324 65.04516602 22.65673828 C65.89264404 22.80481934 66.74012207 22.95290039 67.61328125 23.10546875 C68.36391846 23.23074951 69.11455566 23.35603027 69.88793945 23.48510742 C72.14171798 24.03454898 73.97026998 24.88966388 76 26 C76 26.66 76 27.32 76 28 C76.5775 28.22945312 77.155 28.45890625 77.75 28.6953125 C80.58867115 30.34134751 82.00681178 32.2702654 84 34.875 C88.06459592 40.0117264 92.45216143 44.5949831 97.18945312 49.11474609 C98.49379915 50.37541604 99.75155045 51.68395251 101 53 C101 53.66 101 54.32 101 55 C101.59554687 55.26554688 102.19109375 55.53109375 102.8046875 55.8046875 C105.06329384 57.03446248 106.38744356 58.24774053 108.125 60.125 C116.08916548 68.29164426 125.54498952 74.69295184 135 81 C135.97195313 81.65871094 136.94390625 82.31742188 137.9453125 82.99609375 C157.26619775 95.53196838 179.44856022 103.29668081 201.6875 108.8125 C202.45715088 109.00755127 203.22680176 109.20260254 204.01977539 109.40356445 C218.84830579 112.87094748 233.95568602 113.32902446 249.11303711 113.26074219 C251.93169719 113.25002207 254.74971839 113.26071115 257.56835938 113.2734375 C279.49265099 113.29123019 300.07416493 110.70943174 320.82495117 103.48706055 C324.35576055 102.30218522 326.45825087 101.90745064 330 103 C324.74897962 107.73137898 319.36513773 112.1265588 313.625 116.25 C312.85043457 116.80647217 312.07586914 117.36294434 311.27783203 117.9362793 C264.36883938 151.22149122 208.36382159 168.37575975 150.9453125 159.50048828 C105.97431099 151.8586984 67.14905256 126.5837691 39 91 C37.77410156 89.48212891 37.77410156 89.48212891 36.5234375 87.93359375 C30.22767435 80.04679503 24.97110653 71.77173722 20 63 C19.65727051 62.41025391 19.31454102 61.82050781 18.96142578 61.21289062 C11.01725343 47.50738695 5.01333035 32.71159767 1.5 17.25 C1.25975098 16.19752075 1.25975098 16.19752075 1.01464844 15.1237793 C-0.03426997 10.02581679 -0.12237133 5.2007816 0 0 Z " fill="#FF5000" transform="translate(638,854)"/>
<path d="M0 0 C-7.51351217 36.44753418 -24.91571507 69.78273141 -50.22265625 97.01171875 C-52.15393545 99.07818963 -52.15393545 99.07818963 -54 102 C-54.66 102 -55.32 102 -56 102 C-56.2475 102.61875 -56.495 103.2375 -56.75 103.875 C-58.20628639 106.35068687 -59.37812506 106.95125002 -62 108 C-62 108.66 -62 109.32 -62 110 C-64.96682963 112.75873537 -68.18678319 115.21142353 -71.37060547 117.71484375 C-72.95553465 118.96492874 -74.52682652 120.23224334 -76.09765625 121.5 C-122.96459037 158.9379102 -183.72914889 168.5097979 -242 162 C-269.8545591 158.26570842 -302.27509475 146.66493052 -325 130 C-326.14648438 127.89257812 -326.14648438 127.89257812 -327 126 C-326.4323291 126.01571045 -325.8646582 126.0314209 -325.27978516 126.04760742 C-236.35515022 128.11339241 -139.33579697 107.22939687 -66 55 C-65.19691406 54.45601562 -64.39382813 53.91203125 -63.56640625 53.3515625 C-53.22402888 46.30219808 -43.41241581 38.50012441 -34.20703125 30.0234375 C-32.27869483 28.25551137 -30.31152022 26.56153954 -28.3125 24.875 C-23.29540824 20.5406465 -18.71631193 15.73358792 -14.1027832 10.97802734 C-13.15858521 10.01630615 -13.15858521 10.01630615 -12.1953125 9.03515625 C-11.34477295 8.15935913 -11.34477295 8.15935913 -10.47705078 7.26586914 C-9 6 -9 6 -7 6 C-7 5.34 -7 4.68 -7 4 C-2.52941176 0 -2.52941176 0 0 0 Z " fill="#FF5000" transform="translate(1104,755)"/>
<path d="M0 0 C0.66 0 1.32 0 2 0 C1.59259205 5.3713522 1.17692655 10.73453855 0.48828125 16.078125 C-4.07872449 52.38339135 0.95037531 87.97431584 17 121 C17.63429383 122.34626973 18.2684045 123.69262577 18.90234375 125.0390625 C28.27752843 144.64342297 40.96828035 161.39979843 56 177 C56.58442871 177.61166016 57.16885742 178.22332031 57.77099609 178.85351562 C66.27582655 187.71827902 75.02675772 195.81417237 85 203 C85.58185059 203.42087891 86.16370117 203.84175781 86.76318359 204.27539062 C102.92758392 215.82329144 120.46726718 224.00872671 139 231 C125.45016498 240.03322335 92.68351481 234.94574247 77 232 C51.74265962 226.76225446 25.07338229 216.01052063 7 197 C7 196.34 7 195.68 7 195 C6.34 195 5.68 195 5 195 C3.40596039 193.18218175 1.94665256 191.36858208 0.5 189.4375 C0.05785156 188.85033203 -0.38429688 188.26316406 -0.83984375 187.65820312 C-2.23923435 185.78111687 -3.62198284 183.89282173 -5 182 C-5.42410156 181.42266113 -5.84820313 180.84532227 -6.28515625 180.25048828 C-30.29639241 147.1974034 -38.07994801 106.80673297 -32.16040039 66.68432617 C-28.17529896 42.37940231 -16.97312692 18.00904547 0 0 Z " fill="#FF5000" transform="translate(597,813)"/>
</svg>
